<svg width="18" height="18" viewBox="0 0 18 18" fill="none" xmlns="http://www.w3.org/2000/svg">
<path d="M9 8.25C8.80109 8.25 8.61032 8.32902 8.46967 8.46967C8.32902 8.61032 8.25 8.80109 8.25 9V11.25C8.25 11.4489 8.32902 11.6397 8.46967 11.7803C8.61032 11.921 8.80109 12 9 12C9.19891 12 9.38968 11.921 9.53033 11.7803C9.67098 11.6397 9.75 11.4489 9.75 11.25V9C9.75 8.80109 9.67098 8.61032 9.53033 8.46967C9.38968 8.32902 9.19891 8.25 9 8.25ZM12.75 5.25V3.75C12.75 2.75544 12.3549 1.80161 11.6517 1.09835C10.9484 0.395088 9.99456 0 9 0C8.00544 0 7.05161 0.395088 6.34835 1.09835C5.64509 1.80161 5.25 2.75544 5.25 3.75V5.25C4.65326 5.25 4.08097 5.48705 3.65901 5.90901C3.23705 6.33097 3 6.90326 3 7.5V12.75C3 13.3467 3.23705 13.919 3.65901 14.341C4.08097 14.7629 4.65326 15 5.25 15H12.75C13.3467 15 13.919 14.7629 14.341 14.341C14.7629 13.919 15 13.3467 15 12.75V7.5C15 6.90326 14.7629 6.33097 14.341 5.90901C13.919 5.48705 13.3467 5.25 12.75 5.25ZM6.75 3.75C6.75 3.15326 6.98705 2.58097 7.40901 2.15901C7.83097 1.73705 8.40326 1.5 9 1.5C9.59674 1.5 10.169 1.73705 10.591 2.15901C11.0129 2.58097 11.25 3.15326 11.25 3.75V5.25H6.75V3.75ZM13.5 12.75C13.5 12.9489 13.421 13.1397 13.2803 13.2803C13.1397 13.421 12.9489 13.5 12.75 13.5H5.25C5.05109 13.5 4.86032 13.421 4.71967 13.2803C4.57902 13.1397 4.5 12.9489 4.5 12.75V7.5C4.5 7.30109 4.57902 7.11032 4.71967 6.96967C4.86032 6.82902 5.05109 6.75 5.25 6.75H12.75C12.9489 6.75 13.1397 6.82902 13.2803 6.96967C13.421 7.11032 13.5 7.30109 13.5 7.5V12.75Z" fill="#5D5A6F"/>
</svg>
