<svg width="24" height="24" viewBox="0 0 24 24" fill="none" xmlns="http://www.w3.org/2000/svg">
<path d="M12 0C17.5228 0 22 4.47715 22 10C22 15.5228 17.5228 20 12 20C6.47715 20 2 15.5228 2 10C2 4.47715 6.47715 0 12 0ZM15.5303 6.46967L15.4462 6.39705C15.1852 6.2034 14.827 6.20101 14.5636 6.38988L14.4697 6.46967L12 8.939L9.53033 6.46967L9.44621 6.39705C9.18522 6.2034 8.82701 6.20101 8.56362 6.38988L8.46967 6.46967L8.39705 6.55379C8.2034 6.81478 8.20101 7.17299 8.38988 7.43638L8.46967 7.53033L10.939 10L8.46967 12.4697L8.39705 12.5538C8.2034 12.8148 8.20101 13.173 8.38988 13.4364L8.46967 13.5303L8.55379 13.6029C8.81478 13.7966 9.17299 13.799 9.43638 13.6101L9.53033 13.5303L12 11.061L14.4697 13.5303L14.5538 13.6029C14.8148 13.7966 15.173 13.799 15.4364 13.6101L15.5303 13.5303L15.6029 13.4462C15.7966 13.1852 15.799 12.827 15.6101 12.5636L15.5303 12.4697L13.061 10L15.5303 7.53033L15.6029 7.44621C15.7966 7.18522 15.799 6.82701 15.6101 6.56362L15.5303 6.46967Z" fill="#FF0012"/>
</svg>
