<svg width="35" height="35" viewBox="0 0 35 35" fill="none" xmlns="http://www.w3.org/2000/svg">
<path d="M12.0267 2.9165C12.6307 2.9165 13.1204 3.4062 13.1204 4.01025C13.1204 4.56398 12.709 5.02159 12.1751 5.09401L12.0267 5.104H6.92253C5.97868 5.104 5.20238 5.82131 5.10902 6.74053L5.09961 6.92692V12.0345C5.09961 12.6386 4.60992 13.1283 4.00586 13.1283C3.45213 13.1283 2.99452 12.7168 2.9221 12.1829L2.91211 12.0345V6.92692C2.91211 4.79406 4.57709 3.05009 6.67823 2.92382L6.92253 2.9165H12.0267ZM5.08962 22.8201C5.0172 22.2864 4.55959 21.8748 4.00586 21.8748C3.45213 21.8748 2.99452 22.2864 2.9221 22.8201L2.91211 22.9686V28.0761L2.92003 28.3302C3.04601 30.346 4.66115 31.958 6.67823 32.0792L6.92253 32.0865H12.0267L12.1751 32.0766C12.709 32.0041 13.1204 31.5465 13.1204 30.9928C13.1204 30.439 12.709 29.9814 12.1751 29.9091L12.0267 29.899H6.92253L6.73615 29.8897C5.87821 29.8025 5.19615 29.1204 5.10902 28.2625L5.09961 28.0761V22.9686L5.08962 22.8201ZM32.0688 22.8201C31.9964 22.2864 31.5388 21.8748 30.9851 21.8748C30.381 21.8748 29.8913 22.3645 29.8913 22.9686V28.0761L29.8818 28.2625C29.7885 29.1818 29.0122 29.899 28.0684 29.899H22.9642L22.8158 29.9091C22.2819 29.9814 21.8705 30.439 21.8705 30.9928C21.8705 31.5968 22.3602 32.0865 22.9642 32.0865H28.0684L28.3127 32.0792C30.4138 31.9529 32.0788 30.2091 32.0788 28.0761V22.9686L32.0688 22.8201ZM28.3127 2.92382L28.0684 2.9165H22.9642L22.8158 2.92649C22.2819 2.99891 21.8705 3.45652 21.8705 4.01025C21.8705 4.56398 22.2819 5.02159 22.8158 5.09401L22.9642 5.104H28.0684L28.2548 5.11341C29.1127 5.20055 29.7948 5.88261 29.8818 6.74053L29.8913 6.92692V12.0345L29.9012 12.1829C29.9737 12.7168 30.4313 13.1283 30.9851 13.1283C31.5388 13.1283 31.9964 12.7168 32.0688 12.1829L32.0788 12.0345V6.92692L32.0708 6.67292C31.9449 4.65713 30.3297 3.04503 28.3127 2.92382ZM9.0443 17.1557L9.05653 17.1258C9.06903 17.0959 9.09025 17.0464 9.12085 16.9807C9.18211 16.8487 9.28048 16.6514 9.42106 16.4103C9.70304 15.9269 10.1495 15.277 10.7992 14.6274C12.0818 13.3448 14.183 12.0311 17.4997 12.0311C20.8164 12.0311 22.9177 13.3448 24.2003 14.6274C24.85 15.277 25.2964 15.9269 25.5784 16.4103C25.719 16.6514 25.8173 16.8487 25.8786 16.9807C25.9092 17.0464 25.9429 17.1258 25.9429 17.1258L25.9551 17.156C26.1727 17.7103 26.7994 18.0062 27.363 17.7947C27.9285 17.5827 28.2151 16.9522 28.0031 16.3867L28.002 16.3842L28.0009 16.3811L27.998 16.3736L27.9897 16.352C27.9828 16.3348 27.9738 16.3122 27.9622 16.2845C27.939 16.229 27.9062 16.1531 27.8628 16.0594C27.7759 15.8723 27.6464 15.6139 27.468 15.3081C27.1119 14.6978 26.5558 13.8893 25.747 13.0806C24.113 11.4465 21.4747 9.84359 17.4997 9.84359C13.5248 9.84359 10.8865 11.4465 9.25239 13.0806C8.44373 13.8893 7.88758 14.6978 7.53154 15.3081C7.35311 15.6139 7.22361 15.8723 7.13677 16.0594C7.09331 16.1531 7.06041 16.229 7.0373 16.2845C7.02575 16.3122 7.01663 16.3348 7.00987 16.352L7.00144 16.3736C6.99833 16.3817 6.76557 17.4682 7.63653 17.7947C8.20074 18.0063 8.82952 17.7217 9.04313 17.1589L9.0443 17.1557ZM17.4997 14.5832C14.6808 14.5832 12.3955 16.8684 12.3955 19.6873C12.3955 22.5063 14.6808 24.7915 17.4997 24.7915C20.3187 24.7915 22.6039 22.5063 22.6039 19.6873C22.6039 16.8684 20.3187 14.5832 17.4997 14.5832ZM14.583 19.6873C14.583 18.0765 15.8888 16.7707 17.4997 16.7707C19.1106 16.7707 20.4164 18.0765 20.4164 19.6873C20.4164 21.2982 19.1106 22.604 17.4997 22.604C15.8888 22.604 14.583 21.2982 14.583 19.6873Z" fill="#084FC7"/>
</svg>
