<svg width="35" height="35" viewBox="0 0 35 35" fill="none" xmlns="http://www.w3.org/2000/svg">
<path d="M15.3128 11.6665C12.8966 11.6665 10.9378 13.6253 10.9378 16.0415C10.9378 18.4578 12.8966 20.4165 15.3128 20.4165C17.7291 20.4165 19.6878 18.4578 19.6878 16.0415C19.6878 13.6253 17.7291 11.6665 15.3128 11.6665ZM13.1253 16.0415C13.1253 14.8334 14.1047 13.854 15.3128 13.854C16.5209 13.854 17.5003 14.8334 17.5003 16.0415C17.5003 17.2496 16.5209 18.229 15.3128 18.229C14.1047 18.229 13.1253 17.2496 13.1253 16.0415ZM2.91699 10.5728C2.91699 8.76057 4.38606 7.2915 6.19824 7.2915H24.4274C26.2395 7.2915 27.7087 8.76057 27.7087 10.5728V16.2951C27.0065 16.1293 26.2741 16.0415 25.5212 16.0415V13.854H24.4274C22.6153 13.854 21.1462 12.3849 21.1462 10.5728V9.479H9.47949V10.5728C9.47949 12.3849 8.01043 13.854 6.19824 13.854H5.10449V18.229H6.19824C8.01043 18.229 9.47949 19.6981 9.47949 21.5103V22.604H16.4992C16.2739 23.3014 16.1273 24.0339 16.0696 24.7915H6.19824C4.38606 24.7915 2.91699 23.3224 2.91699 21.5103V10.5728ZM6.41899 26.979H16.1536C16.2712 27.742 16.4801 28.475 16.7685 29.1665H10.2087C8.58933 29.1665 7.17544 28.2867 6.41899 26.979ZM29.8962 17.1093C30.6997 17.5281 31.4359 18.0587 32.0837 18.6805V14.5832C32.0837 12.9638 31.2038 11.55 29.8962 10.7935V17.1093ZM6.19824 9.479C5.59419 9.479 5.10449 9.9687 5.10449 10.5728V11.6665H6.19824C6.8023 11.6665 7.29199 11.1768 7.29199 10.5728V9.479H6.19824ZM25.5212 11.6665V10.5728C25.5212 9.9687 25.0315 9.479 24.4274 9.479H23.3337V10.5728C23.3337 11.1768 23.8234 11.6665 24.4274 11.6665H25.5212ZM5.10449 21.5103C5.10449 22.1143 5.59419 22.604 6.19824 22.604H7.29199V21.5103C7.29199 20.9062 6.8023 20.4165 6.19824 20.4165H5.10449V21.5103ZM20.8227 20.3809C21.2818 21.9709 20.3275 23.6238 18.721 24.0212L17.869 24.2321C17.8035 24.6516 17.7695 25.082 17.7695 25.5208C17.7695 25.9796 17.8067 26.4295 17.8783 26.8674L18.665 27.0569C20.2873 27.4476 21.2519 29.1174 20.7795 30.718L20.5078 31.6385C21.1482 32.201 21.8781 32.6576 22.6722 32.9825L23.3916 32.2261C24.5416 31.0167 26.47 31.017 27.6194 32.2268L28.3467 32.992C29.1394 32.6709 29.8686 32.2185 30.5092 31.6607L30.2203 30.6604C29.7614 29.0705 30.7157 27.4175 32.3221 27.0201L33.1733 26.8095C33.239 26.39 33.2729 25.9595 33.2729 25.5208C33.2729 25.0617 33.2356 24.6117 33.1641 24.1738L32.3781 23.9845C30.7557 23.5938 29.7913 21.924 30.2635 20.3235L30.5351 19.4034C29.8947 18.8409 29.1648 18.3842 28.3706 18.0591L27.6515 18.8154C26.5015 20.0246 24.5732 20.0244 23.4236 18.8147L22.6962 18.0492C21.9035 18.3703 21.1745 18.8227 20.5338 19.3802L20.8227 20.3809ZM25.5212 27.7083C24.3536 27.7083 23.4072 26.7289 23.4072 25.5208C23.4072 24.3126 24.3536 23.3333 25.5212 23.3333C26.6888 23.3333 27.6353 24.3126 27.6353 25.5208C27.6353 26.7289 26.6888 27.7083 25.5212 27.7083Z" fill="#084FC7"/>
</svg>
